<?xml version="1.0" encoding="UTF-8" standalone="no"?>
<!-- Created with Inkscape (http://www.inkscape.org/) -->

<svg
   xmlns:dc="http://purl.org/dc/elements/1.1/"
   xmlns:cc="http://creativecommons.org/ns#"
   xmlns:rdf="http://www.w3.org/1999/02/22-rdf-syntax-ns#"
   xmlns:svg="http://www.w3.org/2000/svg"
   xmlns="http://www.w3.org/2000/svg"
   xmlns:sodipodi="http://sodipodi.sourceforge.net/DTD/sodipodi-0.dtd"
   xmlns:inkscape="http://www.inkscape.org/namespaces/inkscape"
   width="744.09448819"
   height="1052.3622047"
   id="svg2"
   version="1.1"
   inkscape:version="0.48.4 r9939"
   sodipodi:docname="uamp_banner_tv.svg">
  <defs
     id="defs4">
    <clipPath
       id="clipPath3110"
       clipPathUnits="userSpaceOnUse">
      <path
         id="path3112"
         d="m 147,45.6953 139.222,0 0,-29.3317 -139.222,0 0,29.3317 z" />
    </clipPath>
    <clipPath
       id="clipPath3102"
       clipPathUnits="userSpaceOnUse">
      <path
         id="path3104"
         d="M 0,180 320,180 320,0 0,0 0,180 z" />
    </clipPath>
    <clipPath
       id="clipPath3086"
       clipPathUnits="userSpaceOnUse">
      <path
         id="path3088"
         d="M 0,180 320,180 320,0 0,0 0,180 z" />
    </clipPath>
    <linearGradient
       id="linearGradient3058"
       spreadMethod="pad"
       gradientTransform="matrix(-160.2003,160.2003,160.2003,160.2003,213.95865,-53.541347)"
       gradientUnits="userSpaceOnUse"
       y2="0"
       x2="1"
       y1="0"
       x1="0">
      <stop
         id="stop3060"
         offset="0"
         style="stop-opacity:1;stop-color:#000000" />
      <stop
         id="stop3062"
         offset="1"
         style="stop-opacity:1;stop-color:#231f20" />
    </linearGradient>
    <mask
       id="mask3046"
       height="1"
       width="1"
       y="0"
       x="0"
       maskUnits="userSpaceOnUse">
      <g
         id="g3048">
        <g
           id="g3050"
           clip-path="url(#clipPath3036)">
          <g
             id="g3052">
            <g
               id="g3054">
              <path
                 id="path3056"
                 style="fill:url(#linearGradient3040);stroke:none"
                 d="m -32768,32767 65535,0 0,-65535 -65535,0 0,65535 z" />
            </g>
          </g>
        </g>
      </g>
    </mask>
    <linearGradient
       id="linearGradient3040"
       spreadMethod="pad"
       gradientTransform="matrix(-160.2003,160.2003,160.2003,160.2003,213.95865,-53.541347)"
       gradientUnits="userSpaceOnUse"
       y2="0"
       x2="1"
       y1="0"
       x1="0">
      <stop
         id="stop3042"
         offset="0"
         style="stop-opacity:0;stop-color:#ffffff" />
      <stop
         id="stop3044"
         offset="1"
         style="stop-opacity:1;stop-color:#ffffff" />
    </linearGradient>
    <clipPath
       id="clipPath3036"
       clipPathUnits="userSpaceOnUse">
      <path
         id="path3038"
         d="m -32768,32767 65535,0 0,-65535 -65535,0 0,65535 z" />
    </clipPath>
    <clipPath
       id="clipPath3032"
       clipPathUnits="userSpaceOnUse">
      <path
         id="path3034"
         d="M 256.348,-11.152 114.23,130.965 64.261,117.162 63.538,64.76 32.706,42.934 l 60.266,-60.266 163.376,6.18 z" />
    </clipPath>
    <clipPath
       id="clipPath3028"
       clipPathUnits="userSpaceOnUse">
      <path
         id="path3030"
         d="m 32.7058,130.965 223.6422,0 0,-148.2974 -223.6422,0 0,148.2974 z" />
    </clipPath>
    <clipPath
       id="clipPath3020"
       clipPathUnits="userSpaceOnUse">
      <path
         id="path3022"
         d="M 0,0 320,0 320,180 0,180 0,0 z" />
    </clipPath>
  </defs>
  <sodipodi:namedview
     id="base"
     pagecolor="#ffffff"
     bordercolor="#666666"
     borderopacity="1.0"
     inkscape:pageopacity="0.0"
     inkscape:pageshadow="2"
     inkscape:zoom="0.98994949"
     inkscape:cx="1044.764"
     inkscape:cy="334.78708"
     inkscape:document-units="px"
     inkscape:current-layer="layer1"
     showgrid="false"
     inkscape:window-width="1200"
     inkscape:window-height="912"
     inkscape:window-x="1920"
     inkscape:window-y="473"
     inkscape:window-maximized="0" />
  <metadata
     id="metadata7">
    <rdf:RDF>
      <cc:Work
         rdf:about="">
        <dc:format>image/svg+xml</dc:format>
        <dc:type
           rdf:resource="http://purl.org/dc/dcmitype/StillImage" />
        <dc:title></dc:title>
      </cc:Work>
    </rdf:RDF>
  </metadata>
  <g
     inkscape:label="Layer 1"
     inkscape:groupmode="layer"
     id="layer1">
    <path
       inkscape:connector-curvature="0"
       d="m 793.39917,778.04854 400.00003,0 0,-225 -400.00003,0 0,225 z"
       style="fill:#ff5722;fill-opacity:1;fill-rule:nonzero;stroke:none"
       id="path3014"
       inkscape:export-filename="/usr/local/google/home/mangini/uamp/uamp/mobile/src/main/res/drawable-xhdpi/banner_tv.png"
       inkscape:export-xdpi="72"
       inkscape:export-ydpi="72" />
    <g
       id="g3016"
       transform="matrix(1.25,0,0,-1.25,793.39917,778.04854)"
       inkscape:export-filename="/usr/local/google/home/mangini/uamp/uamp/mobile/src/main/res/drawable-xhdpi/banner_tv.png"
       inkscape:export-xdpi="72"
       inkscape:export-ydpi="72">
      <g
         id="g3018"
         clip-path="url(#clipPath3020)">
        <g
           id="g3024">
          <g
             id="g3026" />
          <g
             id="g3064">
            <g
               style="opacity:0.10000598"
               clip-path="url(#clipPath3028)"
               id="g3066">
              <g
                 id="g3068">
                <g
                   clip-path="url(#clipPath3032)"
                   id="g3070">
                  <g
                     id="g3072">
                    <g
                       id="g3074" />
                    <g
                       mask="url(#mask3046)"
                       id="g3076">
                      <g
                         id="g3078">
                        <path
                           inkscape:connector-curvature="0"
                           d="M 256.348,-11.152 114.23,130.965 64.261,117.162 63.538,64.76 32.706,42.934 l 60.266,-60.266 163.376,6.18 z"
                           style="fill:url(#linearGradient3058);stroke:none"
                           id="path3080" />
                      </g>
                    </g>
                  </g>
                </g>
              </g>
            </g>
          </g>
        </g>
      </g>
    </g>
    <g
       id="g3082"
       transform="matrix(1.25,0,0,-1.25,793.39917,778.04854)"
       inkscape:export-filename="/usr/local/google/home/mangini/uamp/uamp/mobile/src/main/res/drawable-xhdpi/banner_tv.png"
       inkscape:export-xdpi="72"
       inkscape:export-ydpi="72">
      <g
         id="g3084"
         clip-path="url(#clipPath3086)">
        <g
           id="g3090"
           transform="translate(49.2862,38.4014)">
          <path
             inkscape:connector-curvature="0"
             d="m 0,0 c -2.26,-0.27 -5.166,-0.303 -6.457,-0.073 -1.291,0.23 -3.815,0.941 -5.607,1.581 -1.792,0.639 -4.363,2.59 -5.713,4.335 -1.612,2.083 -2.477,4.909 -2.521,8.231 -0.036,2.783 0.805,6.593 1.869,8.467 1.065,1.874 3.93,4.548 6.367,5.943 3.718,2.127 5.801,2.501 12.943,2.32 l 8.511,-0.215 0,28.447 c 0,21.472 -0.484,27.551 0.88,29.171 0.976,1.158 10.888,1.624 28.049,3.152 25.13,2.236 25.086,3.126 26.623,1.205 1.301,-1.628 1.27,0.174 0.982,-30.051 C 65.591,27.195 66.275,27.519 62.749,21.835 61.45,19.741 58.06,16.891 55.273,15.47 51.846,13.724 48.254,12.871 44.18,12.836 c -3.518,-0.031 -7.608,0.716 -9.83,1.794 -2.092,1.016 -4.649,3.034 -5.682,4.485 -1.032,1.45 -2.154,4.533 -2.491,6.85 -0.409,2.801 0.082,5.564 1.463,8.242 1.142,2.216 3.956,5.467 6.557,6.757 4.182,2.076 5.433,2.679 12.73,2.3 l 8.251,-0.429 0,19.755 c 0,13.05 1.075,13.638 -0.809,13.587 -1.13,-0.03 -9.219,-0.779 -18.319,-1.648 L 20.824,72.744 21.067,43.939 C 21.302,16.044 18.017,12.368 15.789,8.868 14.465,6.788 11.295,4.052 8.745,2.789 6.195,1.525 2.26,0.27 0,0 z"
             style="fill:#f1f1f2;fill-opacity:1;fill-rule:nonzero;stroke:none"
             id="path3092" />
        </g>
      </g>
    </g>
    <text
       id="text3094"
       x="974.64917"
       y="692.48877"
       style="font-size:15px"
       inkscape:export-filename="/usr/local/google/home/mangini/uamp/uamp/mobile/src/main/res/drawable-xhdpi/banner_tv.png"
       inkscape:export-xdpi="72"
       inkscape:export-ydpi="72">
      <tspan
         style="font-size:76.6969986px;font-variant:normal;font-weight:bold;font-stretch:condensed;writing-mode:lr-tb;fill:#ffffff;fill-opacity:1;fill-rule:nonzero;stroke:none;font-family:Roboto Condensed;-inkscape-font-specification:RobotoCondensed-Bold"
         x="974.64917 1012.3841 1056.3851 1113.2943"
         sodipodi:role="line"
         id="tspan3096"
         y="692.48877">uAmp</tspan>
    </text>
    <g
       id="g3098"
       transform="matrix(1.25,0,0,-1.25,793.39917,778.04854)"
       inkscape:export-filename="/usr/local/google/home/mangini/uamp/uamp/mobile/src/main/res/drawable-xhdpi/banner_tv.png"
       inkscape:export-xdpi="72"
       inkscape:export-ydpi="72">
      <g
         id="g3100"
         clip-path="url(#clipPath3102)">
        <g
           id="g3106">
          <g
             id="g3108" />
          <g
             id="g3114">
            <g
               style="opacity:0.69999701"
               clip-path="url(#clipPath3110)"
               id="g3116">
              <text
                 transform="matrix(1,0,0,-1,207.6055,22.083)"
                 id="text3118">
                <tspan
                   style="font-size:17.26300049px;font-variant:normal;font-weight:300;font-stretch:normal;writing-mode:lr-tb;fill:#ffffff;fill-opacity:1;fill-rule:nonzero;stroke:none;font-family:Roboto Light;-inkscape-font-specification:Roboto-Light"
                   x="0 10.789375 19.079067 26.755924 35.154373 38.503395 47.652786 56.698597 65.105675 70.388153"
                   y="0"
                   sodipodi:role="line"
                   id="tspan3120">Developers</tspan>
              </text>
              <g
                 transform="translate(169.1677,23.5648)"
                 id="g3122">
                <path
                   inkscape:connector-curvature="0"
                   d="m 0,0 c 0.465,0.612 0.577,1.373 0.577,2.125 0,1.685 -0.808,4.898 -3.192,4.898 -0.636,0 -1.268,-0.248 -1.731,-0.65 -0.75,-0.668 -0.885,-1.51 -0.885,-2.334 0,-1.897 0.943,-5.016 3.267,-5.016 0.753,0 1.521,0.362 1.964,0.977 m -2.426,-1.601 c -3.069,0 -4.689,2.396 -4.689,4.556 0,2.531 2.046,4.692 4.98,4.692 2.839,0 4.596,-2.221 4.596,-4.556 0,-2.278 -1.737,-4.692 -4.887,-4.692"
                   style="fill:#ffffff;fill-opacity:1;fill-rule:nonzero;stroke:none"
                   id="path3124" />
              </g>
              <g
                 transform="translate(192.9213,34.909)"
                 id="g3126">
                <path
                   inkscape:connector-curvature="0"
                   d="m 0,0 -1.2,0 0.8,0.799 3.16,0 L 2.068,0.108 C 1.977,0.017 1.92,-0.116 1.92,-0.256 l 0,-11.233 c 0,-0.276 0.199,-0.5 0.468,-0.532 l 1.052,-0.124 -0.576,-0.575 -3.704,0 0.692,0.69 C -0.056,-11.939 0,-11.806 0,-11.666 L 0,0 z"
                   style="fill:#ffffff;fill-opacity:1;fill-rule:nonzero;stroke:none"
                   id="path3128" />
              </g>
              <g
                 transform="translate(200.2792,30.588)"
                 id="g3130">
                <path
                   inkscape:connector-curvature="0"
                   d="m 0,0 c 1.058,0 1.938,-0.878 1.938,-1.653 0,-0.272 -0.195,-0.388 -0.567,-0.524 L -2.156,-3.609 C -2.704,-0.691 -0.801,0 0,0 m 1.843,-7.62 c -1.706,0 -3.284,1.224 -3.847,3.416 l 5.899,2.387 c -0.316,1.14 -1.211,2.441 -3.539,2.441 -1.918,0 -4.262,-1.461 -4.262,-4.441 0,-2.347 1.54,-4.807 4.56,-4.807 0.621,0 1.591,0.039 2.582,0.75 0.375,0.262 0.691,0.567 0.955,0.914 C 3.53,-7.287 2.832,-7.62 1.843,-7.62"
                   style="fill:#ffffff;fill-opacity:1;fill-rule:nonzero;stroke:none"
                   id="path3132" />
              </g>
              <g
                 transform="translate(179.728,23.5648)"
                 id="g3134">
                <path
                   inkscape:connector-curvature="0"
                   d="m 0,0 c 0.465,0.612 0.577,1.373 0.577,2.125 0,1.685 -0.808,4.898 -3.192,4.898 -0.636,0 -1.268,-0.248 -1.731,-0.65 -0.75,-0.668 -0.885,-1.51 -0.885,-2.334 0,-1.897 0.942,-5.016 3.267,-5.016 0.753,0 1.521,0.362 1.964,0.977 m -2.426,-1.601 c -3.069,0 -4.689,2.396 -4.689,4.556 0,2.531 2.046,4.692 4.98,4.692 2.839,0 4.596,-2.221 4.596,-4.556 0,-2.278 -1.737,-4.692 -4.887,-4.692"
                   style="fill:#ffffff;fill-opacity:1;fill-rule:nonzero;stroke:none"
                   id="path3136" />
              </g>
              <g
                 transform="translate(187.3271,17.2077)"
                 id="g3138">
                <path
                   inkscape:connector-curvature="0"
                   d="m 0,0 c -2.093,0 -3.446,1.001 -3.446,2.391 0,1.386 1.252,1.855 1.683,2.013 C -0.942,4.679 0.116,4.7 0.294,4.7 0.487,4.7 0.585,4.7 0.74,4.684 2.23,3.619 2.874,3.113 2.874,2.114 2.874,1 1.874,0 0,0 m 0.009,7.828 c -1.575,0 -2.431,1.961 -2.431,3.453 0,1.416 0.838,2.059 1.714,2.059 1.686,0 2.558,-2.211 2.558,-3.548 C 1.85,8.144 0.531,7.828 0.009,7.828 M 2.532,5.572 1.831,6.117 C 1.618,6.292 1.325,6.524 1.325,6.952 c 0,0.431 0.293,0.76 0.543,0.954 0.838,0.651 1.63,1.345 1.63,2.782 0,1.341 -0.82,2.109 -1.307,2.533 l 1.091,0 0.784,0.783 -3.933,0 c -2.796,0 -4.211,-1.734 -4.211,-3.664 0,-1.493 1.128,-3.104 3.174,-3.104 l 0.546,0 C -0.432,7.029 -0.478,6.813 -0.478,6.541 -0.478,5.939 -0.217,5.634 0.08,5.3 -0.797,5.243 -2.432,5.064 -3.638,4.327 c -1.15,-0.686 -1.48,-1.676 -1.48,-2.374 0,-1.443 1.346,-2.797 4.168,-2.797 3.35,0 5.096,1.86 5.096,3.689 0,1.349 -0.758,2.006 -1.614,2.727"
                   style="fill:#ffffff;fill-opacity:1;fill-rule:nonzero;stroke:none"
                   id="path3140" />
              </g>
              <g
                 transform="translate(160.4404,22.596)"
                 id="g3142">
                <path
                   inkscape:connector-curvature="0"
                   d="m 0,0 c -0.913,-0.252 -3.04,-0.864 -5.84,-0.864 -3.993,0 -7.5,2.543 -7.5,7.263 0,3.283 2.714,7.009 7.806,7.009 1.053,0 2.078,-0.118 2.949,-0.371 1.345,-0.396 2.099,-0.885 2.531,-1.181 l -1.865,-1.864 0,1.12 c -0.744,0.622 -1.702,1.544 -4.04,1.544 -3.036,0 -5.261,-2.349 -5.261,-5.709 0,-3.684 2.709,-6.963 6.43,-6.963 1.382,0 2.304,0.194 2.87,0.38 l 0,3.389 -2.48,0 0.8,0.799 4.44,0 L 0.148,3.861 C 0.057,3.769 0,3.637 0,3.497 L 0,0 z"
                   style="fill:#ffffff;fill-opacity:1;fill-rule:nonzero;stroke:none"
                   id="path3144" />
              </g>
              <text
                 transform="matrix(1,0,0,-1,147,40.0811)"
                 id="text3146">
                <tspan
                   style="font-size:6.56230021px;font-variant:normal;font-weight:normal;font-stretch:normal;writing-mode:lr-tb;fill:#ffffff;fill-opacity:1;fill-rule:nonzero;stroke:none;font-family:Roboto;-inkscape-font-specification:Roboto-Regular"
                   x="0 3.891444 7.4613352 13.209909 16.891359 18.485998 21.964018 23.591469 27.870089 31.551538 35.23299 36.860439 40.507111"
                   y="0"
                   sodipodi:role="line"
                   id="tspan3148">Sample App by</tspan>
              </text>
            </g>
          </g>
        </g>
      </g>
    </g>
  </g>
</svg>
