<?xml version="1.0" encoding="UTF-8" standalone="no"?>
<!-- Created with Inkscape (http://www.inkscape.org/) -->

<svg
   xmlns:dc="http://purl.org/dc/elements/1.1/"
   xmlns:cc="http://creativecommons.org/ns#"
   xmlns:rdf="http://www.w3.org/1999/02/22-rdf-syntax-ns#"
   xmlns:svg="http://www.w3.org/2000/svg"
   xmlns="http://www.w3.org/2000/svg"
   xmlns:sodipodi="http://sodipodi.sourceforge.net/DTD/sodipodi-0.dtd"
   xmlns:inkscape="http://www.inkscape.org/namespaces/inkscape"
   inkscape:export-ydpi="22.5"
   inkscape:export-xdpi="22.5"
   inkscape:export-filename="/home/mangini/uamp/uamp/mobile/src/main/res/drawable-mdpi/ic_launcher.png"
   width="192"
   height="192"
   id="svg2"
   version="1.1"
   inkscape:version="0.48.4 r9939"
   sodipodi:docname="uamp_icon.svg">
  <sodipodi:namedview
     id="base"
     pagecolor="#ffffff"
     bordercolor="#666666"
     borderopacity="1.0"
     inkscape:pageopacity="0.0"
     inkscape:pageshadow="2"
     inkscape:zoom="2.9158801"
     inkscape:cx="368.25091"
     inkscape:cy="341.32846"
     inkscape:document-units="px"
     inkscape:current-layer="layer1"
     showgrid="false"
     inkscape:window-width="1673"
     inkscape:window-height="868"
     inkscape:window-x="84"
     inkscape:window-y="24"
     inkscape:window-maximized="0" />
  <defs
     id="defs4" />
  <metadata
     id="metadata7">
    <rdf:RDF>
      <cc:Work
         rdf:about="">
        <dc:format>image/svg+xml</dc:format>
        <dc:type
           rdf:resource="http://purl.org/dc/dcmitype/StillImage" />
        <dc:title />
      </cc:Work>
    </rdf:RDF>
  </metadata>
  <g
     id="layer1"
     inkscape:groupmode="layer"
     inkscape:label="Layer 1"
     transform="translate(0,-860.36218)">
    <path
       transform="matrix(0.91170557,0,0,0.91170557,-367.62245,153.04764)"
       d="m 616.07145,647.00507 c 0,38.46269 -31.18017,69.64286 -69.64286,69.64286 -38.46269,0 -69.64286,-31.18017 -69.64286,-69.64286 0,-38.46269 31.18017,-69.64286 69.64286,-69.64286 38.46269,0 69.64286,31.18017 69.64286,69.64286 z"
       sodipodi:ry="69.64286"
       sodipodi:rx="69.64286"
       sodipodi:cy="647.00507"
       sodipodi:cx="546.42859"
       id="path3303"
       style="fill:#ff5722;fill-opacity:1;fill-rule:evenodd;stroke:none"
       sodipodi:type="arc"
       inkscape:export-filename="/tmp/icon/drawable-xxxhdpi/ic_launcher.png"
       inkscape:export-xdpi="136.08"
       inkscape:export-ydpi="136.08" />
    <path
       inkscape:connector-curvature="0"
       id="path4432"
       d="m 107.27379,789.34688 c -1.925,0.24978 -4.4,0.28018 -5.5,0.0676 -1.1,-0.21261 -3.249175,-0.87075 -4.775945,-1.46254 -1.52677,-0.59179 -3.71673,-2.39719 -4.86657,-4.012 -1.37313,-1.92838 -2.11,-4.54286 -2.14704,-7.61793 -0.031,-2.57505 0.68552,-6.10097 1.59233,-7.83537 0.90681,-1.7344 3.34715,-4.2094 5.42299,-5.5 3.166585,-1.96878 4.941475,-2.31452 11.024235,-2.14753 l 7.25,0.19905 0,-26.3266 c 0,-19.87071 0.30653,-26.56749 1.25,-27.30893 0.6875,-0.54028 10.89544,-4.01906 22.6843,-7.73063 20.51302,-6.45826 21.49309,-6.66844 22.80194,-4.89012 1.10884,1.50657 1.3105,8.38648 1.0657,36.35819 -0.28606,32.68539 -0.40982,34.68409 -2.35306,38 -1.12812,1.925 -3.99371,4.5755 -6.36799,5.89001 -2.91876,1.61596 -5.97897,2.40557 -9.44888,2.43807 -2.99674,0.0281 -6.48032,-0.66296 -8.37259,-1.66082 -1.78232,-0.93989 -3.96034,-2.80737 -4.84005,-4.14997 -0.8797,-1.3426 -1.83479,-4.19558 -2.12241,-6.33995 -0.34762,-2.59168 0.0702,-5.1489 1.24633,-7.62733 0.97311,-2.05067 3.4864,-4.86482 5.5851,-6.25367 3.37461,-2.23321 4.62841,-2.47927 10.84371,-2.12807 l 7.0279,0.39711 0,-18.28269 c 0,-16.76495 -0.14528,-18.27843 -1.75,-18.23142 -0.9625,0.0282 -7.825,1.9877 -15.25,4.35444 l -13.5,4.30315 -0.5,27.89557 c -0.46266,25.81244 -0.65317,28.15694 -2.55112,31.39557 -1.12812,1.925 -3.82812,4.45685 -6,5.62634 -2.17189,1.16948 -5.52388,2.33069 -7.44888,2.58047 z"
       style="fill:#ffffff"
       inkscape:export-filename="/tmp/icon/drawable-xxxhdpi/ic_launcher.png"
       inkscape:export-xdpi="136.08"
       inkscape:export-ydpi="136.08" />
    <g
       id="g3838"
       transform="translate(-1.7850081,-2.3484118)">
      <path
         inkscape:connector-curvature="0"
         id="path3810"
         d="m 63.047435,1027.6955 c -3.428956,0.4095 -7.837601,0.4594 -9.796992,0.1105 -1.959408,-0.3485 -5.787677,-1.4276 -8.507262,-2.3978 -2.719586,-0.9703 -6.6205,-3.9302 -8.668686,-6.5776 -2.445907,-3.1616 -3.758475,-7.4479 -3.824464,-12.4895 -0.05525,-4.2218 1.221101,-10.00242 2.836382,-12.84595 1.615265,-2.84351 5.962182,-6.90122 9.659817,-9.01714 5.64055,-3.22777 8.802107,-3.79461 19.637151,-3.52083 l 12.914218,0.32634 0,-43.16193 c 0,-32.57763 -0.73493,-41.80195 1.335963,-44.26011 1.479958,-1.75672 16.519713,-2.46436 42.557068,-4.78173 38.12952,-3.39357 38.06235,-4.74405 40.39378,-1.82853 1.97515,2.47 1.92721,-0.26445 1.49117,45.59461 -0.50956,53.58705 0.52955,53.09621 -4.82121,61.72062 -1.97082,3.17659 -7.11388,7.50145 -11.34312,9.65655 -5.1991,2.6494 -10.65015,3.9439 -16.83102,3.9972 -5.33801,0.046 -11.5432,-1.0869 -14.91384,-2.723 -3.17479,-1.5408 -7.05443,-4.6025 -8.62144,-6.80371 -1.56697,-2.20116 -3.26825,-6.87857 -3.78059,-10.39422 -0.61919,-4.24901 0.12507,-8.44152 2.22005,-12.50486 1.73338,-3.36204 6.00283,-8.29455 9.94858,-10.25276 6.34507,-3.14898 8.24444,-4.06471 19.31558,-3.48894 l 12.51859,0.65106 0,-29.97411 c 0,-19.80073 1.63054,-20.69282 -1.22789,-20.61575 -1.71448,0.0462 -13.98676,1.18271 -27.79414,2.50187 l -23.102504,2.7076 0.3689,43.70548 c 0.357275,42.32454 -4.62722,47.90164 -8.007992,53.21134 -2.009478,3.1561 -6.818926,7.307 -10.687623,9.2243 -3.868731,1.9173 -9.839536,3.8212 -13.268476,4.2307 z"
         style="fill:#f8a183;fill-opacity:1"
         inkscape:export-filename="/tmp/icon/drawable-xxxhdpi/ic_launcher.png"
         inkscape:export-xdpi="136.08"
         inkscape:export-ydpi="136.08"
         sodipodi:nodetypes="scsssssscssssssscssscsscssscssss" />
      <path
         sodipodi:nodetypes="scsssssscssssssscssscsscssscssss"
         inkscape:export-ydpi="136.08"
         inkscape:export-xdpi="136.08"
         inkscape:export-filename="/tmp/icon/drawable-xxxhdpi/ic_launcher.png"
         style="fill:#ff5722;fill-opacity:1"
         d="m 63.047435,1031.4248 c -3.428956,0.4095 -7.837601,0.4594 -9.796992,0.1104 -1.959408,-0.3485 -5.787677,-1.4275 -8.507262,-2.3977 -2.719586,-0.9704 -6.6205,-3.9303 -8.668686,-6.5777 -2.445907,-3.1615 -3.758475,-7.4479 -3.824464,-12.4894 -0.05525,-4.2218 1.221101,-10.0025 2.836382,-12.846 1.615265,-2.84351 5.962182,-6.90123 9.659817,-9.01714 5.64055,-3.22777 8.802107,-3.79461 19.637151,-3.52083 l 12.914218,0.32634 0,-43.16194 c 0,-32.57764 -0.73493,-41.80195 1.335963,-44.26011 1.479958,-1.75672 16.519713,-2.46435 42.557068,-4.78172 38.12952,-3.39358 38.06235,-4.74405 40.39378,-1.82853 1.97515,2.46999 1.92721,-0.26445 1.49117,45.59461 -0.50956,53.58705 0.52955,53.09621 -4.82121,61.7206 -1.97082,3.17662 -7.11388,7.50142 -11.34312,9.65662 -5.1991,2.6493 -10.65015,3.9438 -16.83102,3.9972 -5.33801,0.046 -11.5432,-1.0869 -14.91384,-2.7229 -3.17479,-1.541 -7.05443,-4.6027 -8.62144,-6.8039 -1.56697,-2.2011 -3.26825,-6.87854 -3.78059,-10.39419 -0.61919,-4.249 0.12507,-8.44151 2.22005,-12.50485 1.73338,-3.36204 6.00283,-8.29456 9.94858,-10.25277 6.34507,-3.14897 8.24444,-4.06472 19.31558,-3.48893 l 12.51859,0.65106 0,-29.97411 c 0,-19.80074 1.63054,-20.69283 -1.22789,-20.61575 -1.71448,0.0462 -13.98676,1.18271 -27.79414,2.50187 l -23.102504,2.7076 0.3689,43.70547 c 0.357275,42.3245 -4.62722,47.9017 -8.007992,53.2113 -2.009478,3.1561 -6.818926,7.307 -10.687623,9.2243 -3.868731,1.9173 -9.839536,3.8212 -13.268476,4.2307 z"
         id="path3794"
         inkscape:connector-curvature="0" />
    </g>
    <flowRoot
       xml:space="preserve"
       id="flowRoot3775"
       style="font-size:40px;font-style:normal;font-weight:normal;line-height:125%;letter-spacing:0px;word-spacing:0px;fill:#000000;fill-opacity:1;stroke:none;font-family:Sans"
       transform="translate(0,860.36218)"><flowRegion
         id="flowRegion3777"><rect
           id="rect3779"
           width="163.93135"
           height="116.40096"
           x="101.85085"
           y="312.28101" /></flowRegion><flowPara
         id="flowPara3781">ubiquotous AndroidMedia Player</flowPara></flowRoot>    <g
       id="g3806"
       transform="translate(-99.910827,-367.63304)"
       inkscape:export-filename="/usr/local/google/home/mangini/uamp/uamp/mobile/src/main/res/drawable-xhdpi/ic_banner_tv.png"
       inkscape:export-xdpi="90"
       inkscape:export-ydpi="90">
      <rect
         y="1261.8838"
         x="-302.29922"
         height="180"
         width="320"
         id="rect2999"
         style="fill:#ff5722;fill-opacity:1;stroke:none" />
      <g
         transform="matrix(0.7483832,0,0,0.7483832,-599.4145,603.49118)"
         id="g3771">
        <path
           inkscape:connector-curvature="0"
           id="path2995"
           d="m 451.20565,1068.9975 c -3.42895,0.4095 -7.8376,0.4594 -9.79699,0.1105 -1.95941,-0.3485 -5.78767,-1.4276 -8.50726,-2.3978 -2.71959,-0.9703 -6.6205,-3.9302 -8.66869,-6.5776 -2.4459,-3.1616 -3.75847,-7.4479 -3.82446,-12.4895 -0.0553,-4.2218 1.2211,-10.0025 2.83638,-12.846 1.61527,-2.8435 5.96218,-6.9012 9.65982,-9.0171 5.64055,-3.2278 8.80211,-3.7946 19.63715,-3.5209 l 12.91422,0.3264 0,-43.16196 c 0,-32.57763 -0.73493,-41.80195 1.33596,-44.26011 1.47996,-1.75672 16.51971,-2.46436 42.55707,-4.78173 38.12952,-3.39357 38.06235,-4.74405 40.39378,-1.82853 1.97515,2.47 1.92721,-0.26445 1.49117,45.59461 -0.50956,53.58702 0.52955,53.09622 -4.82121,61.72062 -1.97082,3.1766 -7.11388,7.5015 -11.34312,9.6566 -5.1991,2.6494 -10.65015,3.9439 -16.83102,3.9972 -5.33801,0.046 -11.5432,-1.0869 -14.91384,-2.723 -3.17479,-1.5408 -7.05443,-4.6025 -8.62144,-6.8038 -1.56697,-2.2011 -3.26825,-6.8785 -3.78059,-10.3942 -0.61919,-4.249 0.12507,-8.4415 2.22005,-12.5048 1.73338,-3.3621 6.00283,-8.2946 9.94858,-10.2528 6.34507,-3.149 8.24444,-4.0647 19.31558,-3.4889 l 12.51859,0.651 0,-29.97409 c 0,-19.80073 1.63054,-20.69282 -1.22789,-20.61575 -1.71448,0.0462 -13.98676,1.18271 -27.79414,2.50187 l -23.1025,2.7076 0.3689,43.70547 c 0.35727,42.3246 -4.62722,47.9017 -8.008,53.2114 -2.00947,3.1561 -6.81892,7.307 -10.68762,9.2243 -3.86873,1.9173 -9.83954,3.8212 -13.26848,4.2307 z"
           style="fill:#f8a183;fill-opacity:1"
           inkscape:export-filename="/tmp/icon/drawable-xxxhdpi/ic_launcher.png"
           inkscape:export-xdpi="136.08"
           inkscape:export-ydpi="136.08"
           sodipodi:nodetypes="scsssssscssssssscssscsscssscssss" />
        <path
           sodipodi:nodetypes="scsssssscssssssscssscsscssscssss"
           inkscape:export-ydpi="136.08"
           inkscape:export-xdpi="136.08"
           inkscape:export-filename="/tmp/icon/drawable-xxxhdpi/ic_launcher.png"
           style="fill:#ffffff;fill-opacity:1"
           d="m 451.20565,1072.7268 c -3.42895,0.4095 -7.8376,0.4594 -9.79699,0.1104 -1.95941,-0.3485 -5.78767,-1.4275 -8.50726,-2.3977 -2.71959,-0.9704 -6.6205,-3.9303 -8.66869,-6.5777 -2.4459,-3.1616 -3.75847,-7.4479 -3.82446,-12.4895 -0.0553,-4.2218 1.2211,-10.0025 2.83638,-12.846 1.61527,-2.8435 5.96218,-6.9012 9.65982,-9.0171 5.64055,-3.2278 8.80211,-3.7946 19.63715,-3.5208 l 12.91422,0.3263 0,-43.16192 c 0,-32.57764 -0.73493,-41.80195 1.33596,-44.26011 1.47996,-1.75672 16.51971,-2.46435 42.55707,-4.78172 38.12952,-3.39358 38.06235,-4.74405 40.39378,-1.82853 1.97515,2.46999 1.92721,-0.26445 1.49117,45.59461 -0.50956,53.58707 0.52955,53.09617 -4.82121,61.72057 -1.97082,3.1767 -7.11388,7.5015 -11.34312,9.6567 -5.1991,2.6493 -10.65015,3.9438 -16.83102,3.9972 -5.33801,0.046 -11.5432,-1.0869 -14.91384,-2.7229 -3.17479,-1.5411 -7.05443,-4.6028 -8.62144,-6.804 -1.56697,-2.2011 -3.26825,-6.8785 -3.78059,-10.3941 -0.61919,-4.249 0.12507,-8.4415 2.22005,-12.5049 1.73338,-3.362 6.00283,-8.2946 9.94858,-10.2528 6.34507,-3.1489 8.24444,-4.0647 19.31558,-3.4889 l 12.51859,0.6511 0,-29.97414 c 0,-19.80074 1.63054,-20.69283 -1.22789,-20.61575 -1.71448,0.0462 -13.98676,1.18271 -27.79414,2.50187 l -23.1025,2.7076 0.3689,43.70542 c 0.35727,42.3246 -4.62722,47.9018 -8.008,53.2114 -2.00947,3.1561 -6.81892,7.307 -10.68762,9.2243 -3.86873,1.9173 -9.83954,3.8212 -13.26848,4.2307 z"
           id="path2997"
           inkscape:connector-curvature="0" />
      </g>
      <text
         sodipodi:linespacing="125%"
         id="text3783"
         y="1364.751"
         x="-139.68114"
         style="font-size:13px;font-style:normal;font-variant:normal;font-weight:bold;font-stretch:normal;line-height:125%;letter-spacing:0px;word-spacing:0px;fill:#ffffff;fill-opacity:1;stroke:none;font-family:DejaVu Sans;-inkscape-font-specification:DejaVu Sans Bold"
         xml:space="preserve"><tspan
           style="font-size:36px"
           id="tspan3795"
           y="1364.751"
           x="-139.68114"
           sodipodi:role="line">uAMP</tspan></text>
    </g>
    <path
       inkscape:export-ydpi="136.08"
       inkscape:export-xdpi="136.08"
       inkscape:export-filename="/tmp/icon/drawable-xxxhdpi/ic_launcher.png"
       sodipodi:type="arc"
       style="fill:#ff5722;fill-opacity:1;fill-rule:evenodd;stroke:none"
       id="path3004"
       sodipodi:cx="546.42859"
       sodipodi:cy="647.00507"
       sodipodi:rx="69.64286"
       sodipodi:ry="69.64286"
       d="m 616.07145,647.00507 a 69.64286,69.64286 0 1 1 -139.28572,0 69.64286,69.64286 0 1 1 139.28572,0 z"
       transform="matrix(0.91170557,0,0,0.91170557,-92.140169,140.43754)" />
    <path
       inkscape:connector-curvature="0"
       id="path3010"
       d="m 388.52829,763.82642 c -1.72877,0.20645 -3.95147,0.23161 -4.93933,0.0557 -0.98786,-0.1757 -2.91795,-0.71974 -4.28908,-1.20889 -1.37113,-0.48919 -3.33783,-1.98147 -4.37046,-3.31621 -1.23314,-1.59397 -1.8949,-3.75498 -1.92817,-6.29679 -0.0279,-2.12849 0.61564,-5.04289 1.43001,-6.4765 0.81437,-1.43361 3.00594,-3.47937 4.87016,-4.54615 2.84378,-1.62733 4.43774,-1.91311 9.9004,-1.77508 l 6.51093,0.16453 0,-21.76082 c 0,-16.42456 -0.37054,-21.07515 0.67354,-22.31448 0.74615,-0.88568 8.3287,-1.24245 21.45587,-2.41079 19.22364,-1.71093 19.18977,-2.39179 20.36521,-0.92188 0.9958,1.24529 0.97163,-0.13333 0.75179,22.98729 -0.2569,27.01681 0.26699,26.76935 -2.43069,31.11749 -0.99363,1.60153 -3.58658,3.78198 -5.71882,4.86851 -2.62122,1.33574 -5.36946,1.98839 -8.48565,2.01526 -2.69125,0.0232 -5.8197,-0.54798 -7.51906,-1.37285 -1.60063,-0.77681 -3.55661,-2.32043 -4.34665,-3.43021 -0.79001,-1.10974 -1.64774,-3.46794 -1.90605,-5.24041 -0.31217,-2.14221 0.0631,-4.25594 1.11928,-6.30454 0.87391,-1.69503 3.02643,-4.18184 5.01574,-5.16911 3.19898,-1.5876 4.15657,-2.04928 9.73828,-1.759 l 6.31146,0.32825 0,-15.11196 c 0,-9.98287 0.82206,-10.43264 -0.61906,-10.39378 -0.86439,0.0233 -7.05166,0.59628 -14.01289,1.26136 l -11.64752,1.36508 0.18599,22.03486 c 0.18012,21.33863 -2.33289,24.15042 -4.03737,26.82739 -1.0131,1.5912 -3.43787,3.68395 -5.38834,4.65059 -1.95049,0.96664 -4.96077,1.92652 -6.68952,2.13298 z"
       style="fill:#fbcfbf;fill-opacity:1"
       inkscape:export-filename="/tmp/icon/drawable-xxxhdpi/ic_launcher.png"
       inkscape:export-xdpi="136.08"
       inkscape:export-ydpi="136.08"
       sodipodi:nodetypes="scsssssscssssssscssscsscssscssss" />
    <path
       sodipodi:nodetypes="scsssssscssssssscssscsscssscssss"
       inkscape:export-ydpi="136.08"
       inkscape:export-xdpi="136.08"
       inkscape:export-filename="/tmp/icon/drawable-xxxhdpi/ic_launcher.png"
       style="fill:#ffffff;fill-opacity:1"
       d="m 388.52829,765.70661 c -1.72877,0.20645 -3.95147,0.23161 -4.93933,0.0557 -0.98786,-0.1757 -2.91795,-0.71969 -4.28908,-1.20884 -1.37113,-0.48925 -3.33783,-1.98153 -4.37046,-3.31626 -1.23314,-1.59392 -1.8949,-3.75498 -1.92817,-6.29674 -0.0279,-2.12849 0.61564,-5.04293 1.43001,-6.47653 0.81437,-1.43361 3.00594,-3.47937 4.87016,-4.54614 2.84378,-1.62734 4.43774,-1.91312 9.9004,-1.77509 l 6.51093,0.16454 0,-21.76083 c 0,-16.42457 -0.37054,-21.07516 0.67354,-22.31448 0.74615,-0.88568 8.3287,-1.24244 21.45587,-2.41079 19.22364,-1.71092 19.18977,-2.39179 20.36521,-0.92188 0.9958,1.24529 0.97163,-0.13333 0.75179,22.98729 -0.2569,27.01682 0.26699,26.76936 -2.43069,31.11749 -0.99363,1.60154 -3.58658,3.78196 -5.71882,4.86855 -2.62122,1.33569 -5.36946,1.98833 -8.48565,2.01525 -2.69125,0.0232 -5.8197,-0.54798 -7.51906,-1.3728 -1.60063,-0.77691 -3.55661,-2.32053 -4.34665,-3.4303 -0.79001,-1.10972 -1.64774,-3.46793 -1.90605,-5.2404 -0.31217,-2.14221 0.0631,-4.25593 1.11928,-6.30453 0.87391,-1.69503 3.02643,-4.18185 5.01574,-5.16911 3.19898,-1.58761 4.15657,-2.0493 9.73828,-1.759 l 6.31146,0.32824 0,-15.11196 c 0,-9.98287 0.82206,-10.43264 -0.61906,-10.39377 -0.86439,0.0233 -7.05166,0.59627 -14.01289,1.26135 l -11.64752,1.36508 0.18599,22.03486 c 0.18012,21.33861 -2.33289,24.15045 -4.03737,26.82738 -1.0131,1.59119 -3.43787,3.68394 -5.38834,4.65058 -1.95049,0.96664 -4.96077,1.92653 -6.68952,2.13298 z"
       id="path3012"
       inkscape:connector-curvature="0" />
  </g>
</svg>
